# AST/ASF file generated using VICON BodyLanguage
# -----------------------------------------------
:version 1.10
:name VICON
:units
  mass 1.0
  length 0.45
  angle deg
:documentation
   .ast/.asf automatically generated from VICON data using
   VICON BodyBuilder and BodyLanguage model FoxedUp or BRILLIANT.MOD
:root
   order TX TY TZ RX RY RZ
   axis XYZ
   position 0 0 0  
   orientation 0 0 0 
:bonedata
  begin
     id 1 
     name lhipjoint
     direction 0.655637 -0.713449 0.247245 
     length 2.52691 
     axis 0 0 0  XYZ
  end
  begin
     id 2 
     name lfemur
     direction 0.34202 -0.939693 0  
     length 7.59371  
     axis 0 0 20  XYZ
    dof rx ry rz
    limits (-160.0 20.0)
           (-70.0 70.0)
           (-60.0 70.0)
  end
  begin
     id 3 
     name ltibia
     direction 0.34202 -0.939693 0   
     length 7.28717   
     axis 0 0 20   XYZ
    dof rx
    limits (-10.0 170.0)
  end
  begin
     id 4 
     name lfoot
     direction 0.0886837 -0.243657 0.965798   
     length 2.2218   
     axis -90 7.62852e-016 20   XYZ
    dof rx rz
    limits (-45.0 90.0)
           (-70.0 20.0)
  end
  begin
     id 5 
     name ltoes
     direction 1.53547e-011 -4.22004e-011 1   
     length 1.11249   
     axis -90 7.62852e-016 20   XYZ
    dof rx
    limits (-90.0 20.0)
  end
  begin
     id 6 
     name rhipjoint
     direction -0.645062 -0.722004 0.250209   
     length 2.49697  
     axis 0 0 0  XYZ 
  end
  begin
     id 7 
     name rfemur
     direction -0.34202 -0.939693 0   
     length 7.58734   
     axis 0 0 -20   XYZ
    dof rx ry rz
    limits (-160.0 20.0)
           (-70.0 70.0)
           (-70.0 60.0)
  end
  begin
     id 8 
     name rtibia
     direction -0.34202 -0.939693 0   
     length 7.21538   
     axis 0 0 -20   XYZ
    dof rx
    limits (-10.0 170.0)
 end
 begin
     id 9 
     name rfoot
     direction -0.102907 -0.282735 0.953662   
     length 2.23735  
     axis -90 -7.62852e-016 -20   XYZ
    dof rx rz
    limits (-45.0 90.0)
           (-20.0 70.0)
  end
  begin
     id 10 
     name rtoes
     direction -1.5354e-011 -4.21751e-011 1   
     length 1.11569   
     axis -90 -7.62852e-016 -20   XYZ
    dof rx
    limits (-90.0 20.0)
  end
  begin
     id 11 
     name lowerback
     direction 0.00952301 0.997604 -0.0685217   
     length 2.05943   
     axis 0 0 0   XYZ
    dof rx ry rz
    limits (-20.0 45.0)
           (-30.0 30.0)
           (-30.0 30.0)
  end
  begin
     id 12 
     name upperback
     direction 0.00494399 0.999577 -0.0286701   
     length 2.06523   
     axis 0 0 0   XYZ
    dof rx ry rz
    limits (-20.0 45.0)
           (-30.0 30.0)
           (-30.0 30.0)
  end
  begin
     id 13 
     name thorax
     direction 0.000729686 0.999992 0.00388603   
     length 2.06807   
     axis 0 0 0   XYZ
    dof rx ry rz
    limits (-20.0 45.0)
           (-30.0 30.0)
           (-30.0 30.0)
  end
  begin
     id 14 
     name lowerneck
     direction 0.00452882 0.995459 0.0950816   
     length 1.57426   
     axis 0 0 0   XYZ
    dof rx ry rz
    limits (-20.0 45.0)
           (-30.0 30.0)
           (-30.0 30.0)
  end
  begin
     id 15 
     name upperneck
     direction 0.021922 0.997711 -0.0639762   
     length 1.56399   
     axis 0 0 0   XYZ
    dof rx ry rz
    limits (-20.0 45.0)
           (-30.0 30.0)
           (-30.0 30.0)
  end
  begin
     id 16
     name head
     direction 0.008024 0.999444 -0.0323691  
     length 1.6265  
     axis 0 0 0   XYZ
    dof rx ry rz
    limits (-20.0 45.0)
           (-30.0 30.0)
           (-30.0 30.0)
  end
  begin
     id 17 
     name lclavicle
     direction 0.967826 0.247107 -0.0474446  
     length 3.6598  
     axis 0 0 0   XYZ
    dof ry rz
    limits (-20.0 10.0)
           (0.0 20.0)
  end
  begin
     id 18 
     name lhumerus
     direction 1 -4.48971e-011 -2.90544e-027   
     length 4.86513   
     axis 180 -30 -90   XYZ
    dof rx ry rz
    limits (-60.0 90.0)
           (-90.0 90.0)
           (-90.0 90.0)
  end
  begin
     id 19
     name lradius
     direction 1 -4.48958e-011 1.79638e-026   
     length 3.35554   
     axis 180 -30 -90   XYZ
    dof rx
    limits (-10.0 170.0)
  end
  begin
     id 20
     name lwrist
     direction 1 -4.48952e-011 3.34345e-026   
     length 1.67777   
     axis -2.22354e-014 90 90   XYZ
    dof ry
    limits (-180.0 0.0)
 end
  begin
     id 21 
     name lhand
     direction 1 -4.49055e-011 6.6869e-026   
     length 0.661175   
     axis -4.26681e-014 90 90   XYZ
    dof rx rz
    limits (-90.0 90.0)
           (-45.0 45.0)
  end
  begin
     id 22 
     name lfingers
     direction 1 -4.48731e-011 1.33738e-025   
     length 0.533057   
     axis -8.53362e-014 90 90   XYZ
    dof rx
    limits (0.0 90.0)
  end
  begin
     id 23
     name lthumb
     direction 0.707107 -6.35005e-011 0.707107   
     length 0.765366   
     axis -90 45 2.85299e-015   XYZ
    dof rx rz
    limits (-45.0 45.0)
           (-45.0 45.0)
  end
  begin
     id 24 
     name rclavicle
     direction -0.973174 0.211421 -0.0907389   
     length 3.59444  
     axis 0 0 0   XYZ 
    dof ry rz
    limits (-10.0 20.0)
           (-20.0 0.0)
  end
  begin
     id 25 
     name rhumerus
     direction -1 -4.48964e-011 1.56311e-027  
     length 5.02649   
     axis 180 30 90   XYZ
    dof rx ry rz
    limits (-90.0 60.0)
           (-90.0 90.0)
           (-90.0 90.0)
  end
  begin
     id 26 
     name rradius
     direction -1 -4.48948e-011 2.01724e-026   
     length 3.36431   
     axis 180 30 90   XYZ
    dof rx
    limits (-10.0 170.0)
  end
  begin
     id 27 
     name rwrist
     direction -1 -4.49008e-011 3.34345e-026   
     length 1.68216   
     axis -2.22354e-014 -90 -90   XYZ
    dof ry
    limits (-180.0 0.0)
  end
  begin
     id 28
     name rhand
     direction -1 -4.49013e-011 6.6869e-026   
     length 0.730406   
     axis -4.26681e-014 -90 -90   XYZ
    dof rx rz
    limits (-90.0 90.0)
           (-45.0 45.0)
  end
  begin
     id 29
     name rfingers
     direction -1 -4.48867e-011 1.33738e-025   
     length 0.588872   
     axis -8.53362e-014 -90 -90   XYZ
    dof rx
    limits (0.0 90.0)
  end
  begin
     id 30
     name rthumb
     direction -0.707107 -6.34907e-011 0.707107   
     length 0.845506   
     axis -90 -45 -2.85299e-015   XYZ
    dof rx rz
    limits (-45.0 45.0)
           (-45.0 45.0)
  end
:hierarchy
  begin
    root lhipjoint rhipjoint lowerback
    lhipjoint lfemur
    lfemur ltibia
    ltibia lfoot
    lfoot ltoes
    rhipjoint rfemur
    rfemur rtibia
    rtibia rfoot
    rfoot rtoes
    lowerback upperback
    upperback thorax
    thorax lowerneck lclavicle rclavicle
    lowerneck upperneck
    upperneck head
    lclavicle lhumerus
    lhumerus lradius
    lradius lwrist
    lwrist lhand lthumb
    lhand lfingers
    rclavicle rhumerus
    rhumerus rradius
    rradius rwrist
    rwrist rhand rthumb
    rhand rfingers
  end

#!OML:ASF H:\Terrain\Patient Classification 1\Takeo\Monday\TakeoMonday.ASF
:FULLY-SPECIFIED
:DEGREES

161
root 10.5238 17.2135 -2.37599 -3.20839 -5.0614 3.94208
lowerback 8.95058 0.145865 -1.31218
upperback 1.66712 0.0158984 -1.39218
thorax -3.28888 0.0146512 -0.704529
lowerneck -13.8483 1.03559 -2.98806
upperneck -5.97006 1.77911 -0.169693
head 0.394828 0.934818 0.522412
rclavicle -3.37313e-015 3.37934e-015
rhumerus -30.0947 5.195 -90.2692
rradius 33.8969
rwrist -17.0624
rhand -31.7379 20.174
rfingers 7.12502
rthumb -4.99564 -9.74709
lclavicle -3.37313e-015 3.37934e-015
lhumerus -35.6754 7.60169 85.9004
lradius 35.4957
lwrist 27.5055
lhand -24.7559 20.6593
lfingers 7.12502
lthumb 1.74735 50.6319
rfemur -17.5701 6.2869 17.4547
rtibia 73.2031
rfoot -1.31109 -15.8005
rtoes -15.628
lfemur -12.0761 -5.07312 -29.6435
ltibia 37.6562
lfoot -18.4742 7.69758
ltoes 0.666238
162
root 10.5174 17.2293 -2.15902 -3.06151 -4.47776 3.54956
lowerback 9.08511 -0.100475 -1.02621
upperback 1.52202 -0.282057 -1.20747
thorax -3.5153 -0.13456 -0.639445
lowerneck -13.7768 1.05903 -3.56454
upperneck -5.73365 1.89709 0.440815
head 0.450369 1.01174 0.818661
rclavicle 1.16103e-014 1.32192e-014
rhumerus -31.2291 4.37088 -90.1045
rradius 32.534
rwrist -16.8557
rhand -31.6268 20.1908
rfingers 7.12502
rthumb -4.88836 -9.73276
lclavicle 1.16103e-014 1.32192e-014
lhumerus -35.1921 6.15695 86.5377
lradius 37.4305
lwrist 28.6906
lhand -24.5956 22.2192
lfingers 7.12502
lthumb 1.90211 52.1905
rfemur -19.2376 6.09796 17.9422
rtibia 72.5312
rfoot -2.90271 -16.118
rtoes -15.01
lfemur -11.1068 -5.58953 -29.343
ltibia 37.0783
lfoot -18.7253 7.57532
ltoes 1.50864
163
root 10.5079 17.2495 -1.93477 -2.9034 -3.84586 3.38959
lowerback 8.98648 -0.228794 -0.893507
upperback 1.59201 -0.4332 -1.11713
thorax -3.38869 -0.210883 -0.602822
lowerneck -14.269 0.994726 -4.26171
upperneck -5.38618 1.94023 1.15469
head 0.636234 1.05503 1.17869
rclavicle -2.67117e-014 -6.65929e-015
rhumerus -31.9776 2.88911 -89.6664
rradius 31.2184
rwrist -16.2766
rhand -31.4853 20.1025
rfingers 7.12502
rthumb -4.75172 -9.82417
lclavicle -2.67117e-014 -6.65929e-015
lhumerus -34.2491 4.91268 87.0981
lradius 39.2448
lwrist 29.2154
lhand -24.0422 23.9134
lfingers 7.12502
lthumb 2.43663 53.8793
rfemur -20.9298 5.85113 18.1001
rtibia 71.6408
rfoot -4.02905 -15.8647
rtoes -15.0057
lfemur -10.206 -5.86074 -29.3022
ltibia 36.5148
lfoot -18.6242 7.7535
ltoes -2.09895
164
root 10.5033 17.2691 -1.7028 -2.66001 -3.35443 3.38454
lowerback 8.64735 -0.31092 -0.76737
upperback 1.65337 -0.523522 -1.10225
thorax -3.13797 -0.257396 -0.64946
lowerneck -14.7614 0.848011 -4.22756
upperneck -4.77425 1.76638 0.949536
head 0.924725 0.957044 1.11271
rclavicle -4.96962e-016 -2.28602e-015
rhumerus -32.6764 1.69654 -89.3371
rradius 29.8389
rwrist -15.7926
rhand -31.6802 19.3847
rfingers 7.12502
rthumb -4.93992 -10.5378
lclavicle -4.96962e-016 -2.28602e-015
lhumerus -33.5555 3.92128 87.5846
lradius 41.2973
lwrist 29.3195
lhand -23.5962 25.2093
lfingers 7.12502
lthumb 2.86737 55.1698
rfemur -22.5961 5.67483 17.9876
rtibia 70.5092
rfoot -4.87885 -15.4243
rtoes -16.0795
lfemur -9.29582 -5.96775 -29.47
ltibia 35.9251
lfoot -18.8016 7.94579
ltoes -5.22936
165
root 10.5081 17.2737 -1.46301 -2.71846 -2.81033 3.56131
lowerback 8.52908 -0.478969 -0.813503
upperback 1.617 -0.749125 -1.09116
thorax -3.11049 -0.368979 -0.58762
lowerneck -14.4558 0.850051 -3.89405
upperneck -4.44377 1.70948 0.415288
head 0.986218 0.907605 0.88072
rclavicle -2.85753e-015 -3.77691e-015
rhumerus -33.6797 1.09435 -89.0386
rradius 28.3742
rwrist -15.3305
rhand -31.8809 17.9128
rfingers 7.12502
rthumb -5.13374 -12.005
lclavicle -2.85753e-015 -3.77691e-015
lhumerus -33.4288 2.97158 88.0561
lradius 43.5485
lwrist 29.8739
lhand -23.5235 25.6723
lfingers 7.12502
lthumb 2.9375 55.6318
rfemur -23.6616 5.3383 17.6315
rtibia 69.1857
rfoot -6.05123 -14.9771
rtoes -16.5275
lfemur -7.84426 -6.33647 -29.9018
ltibia 35.2294
lfoot -19.4351 7.72895
ltoes -4.05577
166
root 10.5095 17.2778 -1.21939 -3.00462 -2.19833 3.80999
lowerback 8.71898 -0.651011 -1.13924
upperback 1.59858 -1.00769 -1.00812
thorax -3.22917 -0.493435 -0.287775
lowerneck -14.0083 0.968909 -3.84909
upperneck -4.42454 1.84208 0.309213
head 0.914276 0.970816 0.84021
rclavicle 6.57232e-015 1.19271e-014
rhumerus -34.8524 0.426972 -88.501
rradius 27.0253
rwrist -14.6642
rhand -31.6747 16.9023
rfingers 7.12502
rthumb -4.93466 -13.0203
lclavicle 6.57232e-015 1.19271e-014
lhumerus -33.2071 1.93644 88.5302
lradius 45.5381
lwrist 30.5013
lhand -23.1803 24.6365
lfingers 7.12502
lthumb 3.26902 54.5912
rfemur -24.308 5.00355 17.2076
rtibia 67.624
rfoot -7.93536 -14.346
rtoes -15.8791
lfemur -6.11654 -6.59123 -30.3721
ltibia 34.4904
lfoot -19.9835 7.25028
ltoes -1.33826
167
root 10.4943 17.2935 -0.991201 -2.83291 -1.83651 3.62058
lowerback 8.64363 -0.677245 -1.06751
upperback 1.65899 -1.03112 -0.941218
thorax -3.12467 -0.506022 -0.257629
lowerneck -14.5293 0.926421 -3.93511
upperneck -3.97926 1.82327 0.628836
head 1.14813 0.964586 0.968155
rclavicle -8.03835e-015 -1.31198e-014
rhumerus -35.7124 -0.706109 -88.0995
rradius 25.8058
rwrist -13.9824
rhand -31.4587 17.4746
rfingers 7.12502
rthumb -4.7261 -12.4527
lclavicle -8.03835e-015 -1.31198e-014
lhumerus -32.3997 0.596896 88.8307
lradius 47.4662
lwrist 30.8947
lhand -23.4878 22.1967
lfingers 7.12502
lthumb 2.97198 52.1558
rfemur -25.6274 5.23966 17.3306
rtibia 65.7156
rfoot -9.26193 -13.8882
rtoes -17.9435
lfemur -5.0824 -6.31141 -30.182
ltibia 33.8102
lfoot -20.0762 7.12686
ltoes -2.14402
168
root 10.481 17.3239 -0.767589 -2.54654 -1.41289 3.52217
lowerback 8.49767 -0.689043 -0.961636
upperback 1.65963 -1.03484 -0.948845
thorax -3.04491 -0.509108 -0.326456
lowerneck -14.7883 0.762129 -4.08591
upperneck -3.5879 1.64181 0.879824
head 1.32564 0.877924 1.0737
rclavicle 5.67779e-015 6.16232e-015
rhumerus -36.5824 -1.77663 -87.7256
rradius 24.6334
rwrist -13.2252
rhand -31.1373 18.7306
rfingers 7.12502
rthumb -4.41575 -11.2034
lclavicle 5.67779e-015 6.16232e-015
lhumerus -31.6913 -0.834261 89.1068
lradius 49.4959
lwrist 31.4455
lhand -24.3193 20.7166
lfingers 7.12502
lthumb 2.16897 50.6854
rfemur -26.9612 5.39818 17.3012
rtibia 63.5068
rfoot -9.88166 -13.3975
rtoes -20.7524
lfemur -4.28206 -5.99785 -30.0762
ltibia 33.1265
lfoot -19.9129 7.11049
ltoes -4.82245
169
root 10.473 17.352 -0.538441 -2.43222 -0.864309 3.34262
lowerback 8.63546 -0.806836 -0.91178
upperback 1.51306 -1.18358 -0.748702
thorax -3.26988 -0.581464 -0.127991
lowerneck -14.5609 0.750242 -4.30346
upperneck -3.48519 1.65115 0.924592
head 1.31912 0.884519 1.12486
rclavicle -8.32411e-016 4.57205e-015
rhumerus -37.7848 -2.35236 -87.1285
rradius 23.6135
rwrist -12.3615
rhand -30.6658 19.5102
rfingers 7.12502
rthumb -3.96044 -10.4327
lclavicle -8.32411e-016 4.57205e-015
lhumerus -31.3461 -1.83237 89.4728
lradius 51.4441
lwrist 31.8899
lhand -24.8334 20.4493
lfingers 7.12502
lthumb 1.67251 50.4225
rfemur -27.811 5.27009 17.3196
rtibia 61.0823
rfoot -10.4647 -12.8001
rtoes -20.2325
lfemur -3.22317 -5.80514 -29.895
ltibia 32.3312
lfoot -19.7736 6.7673
ltoes -6.30493
